<svg xmlns="http://www.w3.org/2000/svg" width="59.429" height="52" viewBox="0 0 59.429 52">
  <path id="quote-left" d="M53.857,58H44.571V50.571A7.435,7.435,0,0,1,52,43.143h.929a2.779,2.779,0,0,0,2.786-2.786V34.786A2.779,2.779,0,0,0,52.929,32H52A18.566,18.566,0,0,0,33.429,50.571V78.429A5.573,5.573,0,0,0,39,84H53.857a5.573,5.573,0,0,0,5.571-5.571V63.571A5.573,5.573,0,0,0,53.857,58ZM20.429,58H11.143V50.571a7.435,7.435,0,0,1,7.429-7.429H19.5a2.779,2.779,0,0,0,2.786-2.786V34.786A2.779,2.779,0,0,0,19.5,32h-.929A18.566,18.566,0,0,0,0,50.571V78.429A5.573,5.573,0,0,0,5.571,84H20.429A5.573,5.573,0,0,0,26,78.429V63.571A5.573,5.573,0,0,0,20.429,58Z" transform="translate(0 -32)" fill="#fff"/>
</svg>
