<svg xmlns="http://www.w3.org/2000/svg" width="34.286" height="30" viewBox="0 0 34.286 30">
  <path id="quote-left" d="M31.071,47H25.714V42.714A4.29,4.29,0,0,1,30,38.429h.536a1.6,1.6,0,0,0,1.607-1.607V33.607A1.6,1.6,0,0,0,30.536,32H30A10.711,10.711,0,0,0,19.286,42.714V58.786A3.215,3.215,0,0,0,22.5,62h8.571a3.215,3.215,0,0,0,3.214-3.214V50.214A3.215,3.215,0,0,0,31.071,47ZM11.786,47H6.429V42.714a4.29,4.29,0,0,1,4.286-4.286h.536a1.6,1.6,0,0,0,1.607-1.607V33.607A1.6,1.6,0,0,0,11.25,32h-.536A10.711,10.711,0,0,0,0,42.714V58.786A3.215,3.215,0,0,0,3.214,62h8.571A3.215,3.215,0,0,0,15,58.786V50.214A3.215,3.215,0,0,0,11.786,47Z" transform="translate(0 -32)" fill="#fff"/>
</svg>
